# xmcd CD database file
#
# Track frame offsets:
#	150
#	26269
#	50629
#	78976
#	114096
#	141294
#	164873
#	192485
#	224750
#
# Disc length: 3285 seconds
#
# Revision: 0
# Processed by: cddbd v1.5.1PL2 Copyright (c) Steve Scherf et al.
# Submitted via: CDex 1.51
#
DISCID=830cd309
DTITLE=Wayne Maureau - Sidewalk Safari
DYEAR=2001
DGENRE=Jazz
TTITLE0=My Favorite Things
TTITLE1=Guess What
TTITLE2=Sidewalk Safari
TTITLE3=The Passage
TTITLE4=Scattered Showers
TTITLE5=Airegin
TTITLE6=The Real Guitarist
TTITLE7=Another Dimension
TTITLE8=Children of the Night
EXTD=YEAR: 2001
EXTT0=
EXTT1=
EXTT2=
EXTT3=
EXTT4=
EXTT5=
EXTT6=
EXTT7=
EXTT8=
PLAYORDER=
